<?xml version="1.0" encoding="UTF-8" standalone="no"?>
<!DOCTYPE svg PUBLIC "-//W3C//DTD SVG 1.1//EN"
 "http://www.w3.org/Graphics/SVG/1.1/DTD/svg11.dtd">
<!-- Generated by graphviz version 5.0.0 (20220707.1540)
 -->
<!-- Title: dependencies Pages: 1 -->
<svg width="617pt" height="247pt"
 viewBox="0.00 0.00 617.00 246.80" xmlns="http://www.w3.org/2000/svg" xmlns:xlink="http://www.w3.org/1999/xlink">
<g id="graph0" class="graph" transform="scale(1 1) rotate(0) translate(4 242.8)">
<title>dependencies</title>
<polygon fill="white" stroke="transparent" points="-4,4 -4,-242.8 613,-242.8 613,4 -4,4"/>
<text text-anchor="middle" x="304.5" y="-8.2" font-family="sans-serif" font-size="14.00">dependencies</text>
<g id="clust1" class="cluster">
<title>cluster_AppModule</title>
<polygon fill="none" stroke="black" stroke-dasharray="1,5" points="8,-32.8 8,-230.8 601,-230.8 601,-32.8 8,-32.8"/>
</g>
<g id="clust2" class="cluster">
<title>cluster_AppModule_declarations</title>
<polygon fill="none" stroke="black" points="168,-40.8 168,-92.8 593,-92.8 593,-40.8 168,-40.8"/>
</g>
<g id="clust6" class="cluster">
<title>cluster_AppModule_imports</title>
<polygon fill="none" stroke="black" points="16,-40.8 16,-92.8 160,-92.8 160,-40.8 16,-40.8"/>
</g>
<g id="clust8" class="cluster">
<title>cluster_AppModule_bootstrap</title>
<polygon fill="none" stroke="black" points="255,-170.8 255,-222.8 379,-222.8 379,-170.8 255,-170.8"/>
</g>
<!-- AppComponent -->
<g id="node1" class="node">
<title>AppComponent</title>
<polygon fill="#ffffb3" stroke="black" points="584.94,-84.8 479.06,-84.8 479.06,-48.8 584.94,-48.8 584.94,-84.8"/>
<text text-anchor="middle" x="532" y="-62.6" font-family="Times,serif" font-size="14.00">AppComponent</text>
</g>
<!-- AppModule -->
<g id="node4" class="node">
<title>AppModule</title>
<polygon fill="#8dd3c7" stroke="black" points="358.66,-149.8 355.66,-153.8 334.66,-153.8 331.66,-149.8 275.34,-149.8 275.34,-113.8 358.66,-113.8 358.66,-149.8"/>
<text text-anchor="middle" x="317" y="-127.6" font-family="Times,serif" font-size="14.00">AppModule</text>
</g>
<!-- AppComponent&#45;&gt;AppModule -->
<g id="edge1" class="edge">
<title>AppComponent&#45;&gt;AppModule</title>
<path fill="none" stroke="black" d="M532,-84.91C532,-104.14 532,-131.8 532,-131.8 532,-131.8 368.71,-131.8 368.71,-131.8"/>
<polygon fill="black" stroke="black" points="368.71,-128.3 358.71,-131.8 368.71,-135.3 368.71,-128.3"/>
</g>
<!-- CitiesListComponent -->
<g id="node2" class="node">
<title>CitiesListComponent</title>
<polygon fill="#ffffb3" stroke="black" points="460.78,-84.8 325.22,-84.8 325.22,-48.8 460.78,-48.8 460.78,-84.8"/>
<text text-anchor="middle" x="393" y="-62.6" font-family="Times,serif" font-size="14.00">CitiesListComponent</text>
</g>
<!-- CitiesListComponent&#45;&gt;AppModule -->
<g id="edge2" class="edge">
<title>CitiesListComponent&#45;&gt;AppModule</title>
<path fill="none" stroke="black" d="M341.97,-84.91C341.97,-84.91 341.97,-103.79 341.97,-103.79"/>
<polygon fill="black" stroke="black" points="338.47,-103.79 341.97,-113.79 345.47,-103.79 338.47,-103.79"/>
</g>
<!-- CityItemComponent -->
<g id="node3" class="node">
<title>CityItemComponent</title>
<polygon fill="#ffffb3" stroke="black" points="307.6,-84.8 176.4,-84.8 176.4,-48.8 307.6,-48.8 307.6,-84.8"/>
<text text-anchor="middle" x="242" y="-62.6" font-family="Times,serif" font-size="14.00">CityItemComponent</text>
</g>
<!-- CityItemComponent&#45;&gt;AppModule -->
<g id="edge3" class="edge">
<title>CityItemComponent&#45;&gt;AppModule</title>
<path fill="none" stroke="black" d="M291.36,-84.91C291.36,-84.91 291.36,-103.79 291.36,-103.79"/>
<polygon fill="black" stroke="black" points="287.86,-103.79 291.36,-113.79 294.86,-103.79 287.86,-103.79"/>
</g>
<!-- AppComponent  -->
<g id="node6" class="node">
<title>AppComponent </title>
<polygon fill="#80b1d3" stroke="black" points="371.44,-214.8 262.56,-214.8 262.56,-178.8 371.44,-178.8 371.44,-214.8"/>
<text text-anchor="middle" x="317" y="-192.6" font-family="Times,serif" font-size="14.00">AppComponent </text>
</g>
<!-- AppModule&#45;&gt;AppComponent  -->
<g id="edge5" class="edge">
<title>AppModule&#45;&gt;AppComponent </title>
<path fill="none" stroke="black" stroke-dasharray="1,5" d="M317,-149.91C317,-149.91 317,-168.79 317,-168.79"/>
<polygon fill="black" stroke="black" points="313.5,-168.79 317,-178.79 320.5,-168.79 313.5,-168.79"/>
</g>
<!-- AppRoutingModule -->
<g id="node5" class="node">
<title>AppRoutingModule</title>
<polygon fill="#8dd3c7" stroke="black" points="152.28,-84.8 149.28,-88.8 128.28,-88.8 125.28,-84.8 23.72,-84.8 23.72,-48.8 152.28,-48.8 152.28,-84.8"/>
<text text-anchor="middle" x="88" y="-62.6" font-family="Times,serif" font-size="14.00">AppRoutingModule</text>
</g>
<!-- AppRoutingModule&#45;&gt;AppModule -->
<g id="edge4" class="edge">
<title>AppRoutingModule&#45;&gt;AppModule</title>
<path fill="none" stroke="black" d="M88,-84.91C88,-104.14 88,-131.8 88,-131.8 88,-131.8 265.26,-131.8 265.26,-131.8"/>
<polygon fill="black" stroke="black" points="265.26,-135.3 275.26,-131.8 265.26,-128.3 265.26,-135.3"/>
</g>
</g>
</svg>
